<?xml version="1.0" encoding="UTF-8"?>
<svg id="_レイヤー_1" data-name="レイヤー 1" xmlns="http://www.w3.org/2000/svg" width="152.37" height="163.04" viewBox="0 0 152.37 163.04">
  <defs>
    <style>
      .cls-1 {
        fill: #231815;
      }

      .cls-1, .cls-2 {
        stroke-width: 0px;
      }

      .cls-3 {
        fill: none;
        stroke: #211613;
        stroke-miterlimit: 10;
        stroke-width: 2px;
      }

      .cls-2 {
        fill: #211613;
      }
    </style>
  </defs>
  <g>
    <path class="cls-1" d="M8.49,49.45c-2.65-.34-5.41-.27-6.78,3.14-1.13,2.83.54,4.64,2.43,5.4,2.51,1,4.42-.09,7.19-2.48,4-3.46,6.43-4.68,9.88-3.3,3.82,1.53,5.4,6,3.52,10.69-.87,2.18-2.25,3.82-3.43,5.08-1.13-.12-3.78-.67-5.84-1.2l.16-1.24c2.73.25,6.53-.08,8.04-3.86,1.05-2.62-.13-4.94-2.49-5.89-2.8-1.12-4.52-.08-7.55,2.42-3.6,2.99-6.2,4.43-9.58,3.08-3.23-1.29-5.21-5.21-3.29-10,.81-2.04,2.16-3.82,2.61-4.52,1.37.38,2.88.82,5.36,1.47l-.23,1.21Z"/>
    <path class="cls-1" d="M32.85,41.67c.81,2.73.66,5.86-.73,7.76-2.93,4.01-7.92,4-11.3,1.53-2.5-1.83-3.79-4.42-3.86-7.72-.07-2.62.81-4.89,1.71-6.12,1.04-1.42,2.24-2.14,3-2.31.67-.19.94-.09,1.29.16.76.55.84,1.83.59,2.18-.11.16-.27.24-.75.37-1.6.33-2.83,1.08-3.66,2.22-1.53,2.08-1.1,5.21,2.19,7.61,4.37,3.24,8.01,1.31,9.35-.53.97-1.33,1.41-2.65,1.08-5.12l1.09-.03Z"/>
    <path class="cls-1" d="M41.49,39.18l-6.78,5.92-.72-.83c1.7-1.8,1.75-2.1.08-4.02l-5.35-6.13c-1.7-1.95-1.89-1.93-3.78-.64l-.64-.74c1.24-1.5,2.26-3.01,3.1-4.84.85.97,1.98,2.27,2.83,3.24-.31-2.43-.48-5.14.99-6.42,1.09-.95,2.3-.82,2.94-.08.59.68.69,1.74.41,2.5-.14.43-.4.61-.82.61-.83-.06-1.44-.04-1.97.42-.62.54-.91,2.41-.25,4.48l4.84,5.54c1.7,1.95,1.98,1.96,4.4.16l.72.83Z"/>
    <path class="cls-1" d="M42.21,17.99c4.35-2.23,9.29-.57,11.58,3.92,2.89,5.65.08,10.47-3.34,12.21-4.81,2.46-9.71.08-11.71-3.82-2.9-5.68.15-10.62,3.46-12.32ZM42.4,19.39c-2.13,1.09-2.99,4.12-.93,8.16,2.26,4.43,5.85,6.63,8.71,5.17,2.16-1.1,3.17-3.6.73-8.37-2.08-4.08-5.45-6.53-8.51-4.96Z"/>
    <path class="cls-1" d="M56.78,30.71l-.28-1.06c2.36-.87,2.61-1.14,1.95-3.64l-4.81-18.12c-.61-2.31-.86-2.48-3.36-2.14l-.26-.98c1.98-.77,4.17-2,5.26-2.77.47,1.78.96,3.59,1.43,5.37l4.74,17.85c.66,2.5.94,2.63,3.46,2.2l.28,1.06-8.4,2.23Z"/>
    <path class="cls-1" d="M64.31,28.64l-.13-1.09c2.46-.53,2.75-.76,2.45-3.32l-2.19-18.62c-.28-2.37-.5-2.58-3.03-2.6l-.12-1.01c2.07-.48,4.41-1.39,5.6-2,.22,1.83.44,3.69.65,5.52l2.16,18.35c.3,2.57.56,2.73,3.11,2.67l.13,1.09-8.63,1.02Z"/>
    <path class="cls-1" d="M95.84,5.06c5.29,1.58,8.31,3.62,9.98,6.53,1.3,2.35,1.87,5.38.8,8.98-1.31,4.39-4.17,7.41-7.71,8.73-3.49,1.29-7.37,1.03-11.99-.35l-8.78-2.62.31-1.05c3.31.66,3.54.44,4.46-2.63l4.46-14.96c.96-3.23.56-3.51-2.28-4.68l.31-1.05,10.43,3.11ZM86.27,23.32c-.84,2.81.13,3.96,2.94,4.8,6.75,2.01,11.58-1.57,13.53-8.14,1.22-4.09.76-7.62-1.67-10.3-1.4-1.6-3.45-2.66-5.97-3.41-1.69-.5-2.66-.55-3.12-.36-.4.12-.68.49-1.11,1.96l-4.61,15.45Z"/>
    <path class="cls-1" d="M117.84,24.25c3.94,2.9,4.66,8.05,1.67,12.12-3.76,5.1-9.33,4.74-12.42,2.47-4.35-3.2-4.42-8.65-1.82-12.18,3.79-5.13,9.57-4.61,12.57-2.41ZM116.67,25.04c-1.92-1.42-5.02-.83-7.72,2.82-2.95,4-3.32,8.2-.74,10.1,1.95,1.44,4.64,1.23,7.82-3.09,2.72-3.69,3.41-7.79.64-9.84Z"/>
    <path class="cls-1" d="M140.93,53.52c-1.39-1.46-1.95-1.51-4.22-.94-3.12.78-8.67,2.33-13.88,3.88l-.69-1c2.55-3.67,4.99-7.3,7.44-10.85-3.79.86-8.36,1.88-12.83,3.06l-.67-.97c3.03-3.81,5.98-7.66,8.93-11.65,1.34-1.78,1.33-2.21.43-3.92l.87-.6,4.63,6.7-.87.6c-1.66-1.71-1.91-1.73-3.08-.25-1.97,2.45-4.01,5.15-5.89,7.59,4.17-.98,8.41-2.01,12.86-3.23l.6.87c-2.52,3.51-5.09,7.23-7.63,10.99,2.45-.65,6.32-1.8,9.09-2.81,1.96-.74,1.95-1.11.72-3.5l.87-.6,4.16,6.02-.87.6Z"/>
    <path class="cls-1" d="M127.89,69.5l1.06-.29c.82,2.13,1.15,2.28,3.72,1.58l6.23-1.69c2.64-.72,4.16-2.15,3.48-4.64-.42-1.55-1.73-2.77-3.11-3.66l-8.84,2.4c-2.6.71-2.62.96-2.24,3.25l-1.06.29-2.22-8.16,1.06-.29c.94,2.42,1.16,2.61,3.65,1.93l7.78-2.12c2.46-.67,2.5-.96,2.28-3.1l.98-.27c.81,1.77,1.8,3.48,2.95,4.88-.87.24-2.08.56-2.98.81.73.61,1.53,1.29,2.44,2.1.97.87,1.69,1.73,1.99,2.83.82,3.02-.89,5.52-4.56,6.51l-7.18,1.95c-2.57.7-2.62.96-2.25,3.21l-1.06.29-2.13-7.82Z"/>
    <path class="cls-1" d="M144.44,107.94c2.67.07,5.41-.28,6.43-3.82.84-2.93-1.01-4.56-2.97-5.13-2.59-.74-4.39.53-6.9,3.19-3.63,3.85-5.92,5.31-9.49,4.28-3.95-1.13-5.98-5.42-4.59-10.27.65-2.26,1.85-4.03,2.89-5.4,1.14,0,3.83.28,5.93.6l-.03,1.25c-2.74.03-6.48.75-7.6,4.66-.78,2.71.63,4.9,3.08,5.6,2.9.83,4.5-.38,7.26-3.17,3.28-3.33,5.72-5.04,9.22-4.03,3.35.96,5.71,4.65,4.29,9.61-.6,2.11-1.76,4.01-2.14,4.76-1.4-.24-2.94-.52-5.48-.92l.11-1.23Z"/>
    <path class="cls-1" d="M120.99,118.24c-1.11-2.63-1.29-5.76-.11-7.79,2.48-4.31,7.44-4.83,11.07-2.74,2.68,1.55,4.25,3.99,4.67,7.26.35,2.6-.28,4.95-1.04,6.27-.88,1.53-2,2.37-2.73,2.62-.65.26-.92.19-1.3-.02-.81-.47-1.04-1.73-.82-2.1.1-.17.24-.27.71-.45,1.55-.5,2.7-1.38,3.4-2.6,1.29-2.24.53-5.3-3-7.33-4.69-2.75-8.11-.43-9.25,1.53-.82,1.42-1.11,2.79-.52,5.21l-1.08.15Z"/>
    <path class="cls-1" d="M112.63,121.51l6.14-6.58.8.75c-1.51,1.96-1.53,2.27.33,4l5.95,5.56c1.89,1.76,2.08,1.73,3.83.26l.71.67c-1.08,1.62-1.94,3.22-2.59,5.13-.94-.88-2.2-2.06-3.15-2.94.55,2.39,1,5.06-.33,6.49-.99,1.06-2.21,1.04-2.92.38-.66-.61-.86-1.66-.67-2.44.09-.45.34-.65.75-.69.83-.03,1.44-.1,1.92-.62.56-.6.66-2.49-.21-4.48l-5.38-5.02c-1.89-1.76-2.17-1.75-4.39.29l-.8-.75Z"/>
    <path class="cls-1" d="M114.04,142.67c-4.11,2.65-9.18,1.5-11.92-2.74-3.44-5.33-1.13-10.41,2.09-12.49,4.54-2.93,9.66-1.06,12.03,2.62,3.46,5.36.92,10.59-2.2,12.6ZM113.72,141.3c2-1.29,2.56-4.4.1-8.22-2.7-4.17-6.49-6.01-9.19-4.27-2.04,1.32-2.79,3.9.12,8.4,2.49,3.85,6.08,5.95,8.97,4.08Z"/>
    <path class="cls-1" d="M98.3,131.46l.39,1.03c-2.26,1.1-2.49,1.4-1.57,3.81l6.61,17.54c.84,2.23,1.11,2.38,3.56,1.79l.36.95c-1.89.97-3.95,2.41-4.95,3.29-.65-1.72-1.31-3.48-1.96-5.2l-6.52-17.29c-.91-2.42-1.2-2.52-3.67-1.84l-.39-1.03,8.13-3.06Z"/>
    <path class="cls-1" d="M91.01,134.28l.24,1.07c-2.39.77-2.66,1.03-2.1,3.55l4.05,18.3c.52,2.33.76,2.52,3.27,2.28l.22.99c-2.01.69-4.25,1.82-5.37,2.55-.4-1.8-.8-3.63-1.2-5.43l-4-18.04c-.56-2.52-.83-2.66-3.37-2.34l-.24-1.07,8.48-1.88Z"/>
    <path class="cls-1" d="M62.05,160.95c-5.42-1.03-8.64-2.75-10.59-5.47-1.54-2.2-2.41-5.16-1.71-8.85.85-4.5,3.39-7.8,6.77-9.47,3.34-1.64,7.23-1.78,11.96-.88l9,1.7-.2,1.08c-3.37-.32-3.57-.08-4.17,3.07l-2.9,15.34c-.63,3.31-.2,3.55,2.75,4.42l-.2,1.08-10.69-2.02ZM69.7,141.8c.55-2.88-.53-3.93-3.42-4.47-6.92-1.31-11.36,2.75-12.63,9.48-.79,4.19.03,7.65,2.71,10.07,1.56,1.45,3.71,2.3,6.28,2.78,1.73.33,2.7.27,3.14.04.39-.17.62-.56.91-2.06l3-15.84Z"/>
    <path class="cls-1" d="M38.28,144.12c-4.24-2.45-5.53-7.49-3.01-11.86,3.17-5.49,8.75-5.75,12.07-3.84,4.68,2.7,5.35,8.11,3.16,11.9-3.19,5.53-9,5.65-12.22,3.79ZM39.36,143.2c2.07,1.19,5.09.27,7.36-3.66,2.48-4.31,2.39-8.52-.39-10.13-2.1-1.21-4.75-.71-7.43,3.94-2.29,3.97-2.52,8.12.46,9.85Z"/>
    <path class="cls-1" d="M12.24,117.25c1.53,1.32,2.09,1.3,4.29.51,3.03-1.09,8.39-3.19,13.41-5.27l.79.92c-2.17,3.91-4.22,7.77-6.3,11.55,3.68-1.24,8.13-2.71,12.45-4.34l.76.89c-2.63,4.09-5.18,8.22-7.71,12.49-1.15,1.91-1.1,2.33-.04,3.94l-.8.69-5.28-6.19.8-.69c1.82,1.53,2.07,1.52,3.09-.06,1.71-2.64,3.46-5.53,5.09-8.15-4.05,1.4-8.16,2.85-12.46,4.51l-.69-.8c2.16-3.74,4.33-7.71,6.48-11.7-2.38.89-6.11,2.43-8.76,3.72-1.88.93-1.83,1.3-.37,3.55l-.8.69-4.75-5.57.8-.69Z"/>
    <path class="cls-1" d="M23.61,100.05l-1.02.39c-1.03-2.04-1.37-2.16-3.86-1.2l-6.03,2.31c-2.56.98-3.93,2.55-3,4.97.57,1.5,2,2.59,3.46,3.33l8.55-3.28c2.52-.97,2.51-1.21,1.9-3.46l1.02-.39,3.03,7.9-1.02.39c-1.18-2.32-1.41-2.48-3.82-1.55l-7.53,2.89c-2.38.91-2.39,1.21-1.96,3.31l-.95.36c-.98-1.68-2.14-3.29-3.42-4.56.84-.32,2.01-.77,2.89-1.11-.79-.53-1.65-1.13-2.63-1.84-1.05-.77-1.85-1.55-2.26-2.61-1.12-2.92.34-5.58,3.88-6.94l6.94-2.66c2.49-.95,2.51-1.21,1.92-3.42l1.02-.39,2.9,7.57Z"/>
  </g>
  <g>
    <line class="cls-3" x1="74.98" y1="57.66" x2="74.98" y2="99.38"/>
    <path class="cls-2" d="M74.98,106.62c-1.26-3.41-3.42-7.64-5.71-10.26l5.71,2.06,5.71-2.06c-2.29,2.62-4.44,6.85-5.71,10.26Z"/>
  </g>
</svg>